HIERARCHY
ROOT Hips
{
	OFFSET 0.000000 0.000000 0.000000
	CHANNELS 6 Xposition Yposition Zposition Zrotation Yrotation Xrotation 
	JOINT LHipJoint
	{
		OFFSET 0.000000 0.000000 0.000000
		CHANNELS 3 Zrotation Yrotation Xrotation
		JOINT LeftUpLeg
		{
			OFFSET 1.363060 -1.794630 0.839290
			CHANNELS 3 Zrotation Yrotation Xrotation
			JOINT LeftLeg
			{
				OFFSET 2.448110 -6.726130 0.000000
				CHANNELS 3 Zrotation Yrotation Xrotation
				JOINT LeftFoot
				{
					OFFSET 2.562200 -7.039590 0.000000
					CHANNELS 3 Zrotation Yrotation Xrotation
					JOINT LeftToeBase
					{
						OFFSET 0.157640 -0.433110 2.322550
						CHANNELS 3 Zrotation Yrotation Xrotation
						End Site
						{
							OFFSET 0.000000 0.000000 0.000000
						}
					}
				}
			}
		}
	}
	JOINT RHipJoint
	{
		OFFSET 0.000000 0.000000 0.000000
		CHANNELS 3 Zrotation Yrotation Xrotation
		JOINT RightUpLeg
		{
			OFFSET -1.305520 -1.794630 0.839290
			CHANNELS 3 Zrotation Yrotation Xrotation
			JOINT RightLeg
			{
				OFFSET -2.542530 -6.985550 0.000000
				CHANNELS 3 Zrotation Yrotation Xrotation
				JOINT RightFoot
				{
					OFFSET -2.568260 -7.056230 0.000000
					CHANNELS 3 Zrotation Yrotation Xrotation
					JOINT RightToeBase
					{
						OFFSET -0.164730 -0.452590 2.363150
						CHANNELS 3 Zrotation Yrotation Xrotation
						End Site
						{
							OFFSET 0.000000 0.000000 0.000000
						}
					}
				}
			}
		}
	}
	JOINT LowerBack
	{
		OFFSET 0.000000 0.000000 0.000000
		CHANNELS 3 Zrotation Yrotation Xrotation
		JOINT Spine
		{
			OFFSET 0.028270 2.035590 -0.193380
			CHANNELS 3 Zrotation Yrotation Xrotation
			JOINT Spine1
			{
				OFFSET 0.056720 2.048850 -0.042750
				CHANNELS 3 Zrotation Yrotation Xrotation
				JOINT Neck
				{
					OFFSET 0.000000 0.000000 0.000000
					CHANNELS 3 Zrotation Yrotation Xrotation
					JOINT Neck1
					{
						OFFSET -0.054170 1.746240 0.172020
						CHANNELS 3 Zrotation Yrotation Xrotation
						JOINT Head
						{
							OFFSET 0.104070 1.761360 -0.123970
							CHANNELS 3 Zrotation Yrotation Xrotation
							End Site
							{
								OFFSET 0.000000 0.000000 0.000000
							}
						}
					}
				}
				JOINT LeftShoulder
				{
					OFFSET 0.000000 0.000000 0.000000
					CHANNELS 3 Zrotation Yrotation Xrotation
					JOINT LeftArm
					{
						OFFSET 3.362410 1.200890 -0.311210
						CHANNELS 3 Zrotation Yrotation Xrotation
						JOINT LeftForeArm
						{
							OFFSET 4.983000 -0.000000 -0.000000
							CHANNELS 3 Zrotation Yrotation Xrotation
							JOINT LeftHand
							{
								OFFSET 3.483560 -0.000000 -0.000000
								CHANNELS 3 Zrotation Yrotation Xrotation
								JOINT LeftFingerBase
								{
									OFFSET 0.000000 0.000000 0.000000
									CHANNELS 3 Zrotation Yrotation Xrotation
									JOINT LeftHandIndex1
									{
										OFFSET 0.715260 -0.000000 -0.000000
										CHANNELS 3 Zrotation Yrotation Xrotation
										End Site
										{
											OFFSET 0.000000 0.000000 0.000000
										}
									}
								}
								JOINT LThumb
								{
									OFFSET 0.000000 0.000000 0.000000
									CHANNELS 3 Zrotation Yrotation Xrotation
									End Site
									{
										OFFSET 0.000000 0.000000 0.000000
									}
								}
							}
						}
					}
				}
				JOINT RightShoulder
				{
					OFFSET 0.000000 0.000000 0.000000
					CHANNELS 3 Zrotation Yrotation Xrotation
					JOINT RightArm
					{
						OFFSET -3.136600 1.374050 -0.404650
						CHANNELS 3 Zrotation Yrotation Xrotation
						JOINT RightForeArm
						{
							OFFSET -5.241900 -0.000000 -0.000000
							CHANNELS 3 Zrotation Yrotation Xrotation
							JOINT RightHand
							{
								OFFSET -3.444170 -0.000000 -0.000000
								CHANNELS 3 Zrotation Yrotation Xrotation
								JOINT RightFingerBase
								{
									OFFSET 0.000000 0.000000 0.000000
									CHANNELS 3 Zrotation Yrotation Xrotation
									JOINT RightHandIndex1
									{
										OFFSET -0.622530 -0.000000 -0.000000
										CHANNELS 3 Zrotation Yrotation Xrotation
										End Site
										{
											OFFSET 0.000000 0.000000 0.000000
										}
									}
								}
								JOINT RThumb
								{
									OFFSET 0.000000 0.000000 0.000000
									CHANNELS 3 Zrotation Yrotation Xrotation
									End Site
									{
										OFFSET 0.000000 0.000000 0.000000
									}
								}
							}
						}
					}
				}
			}
		}
	}
}
MOTION
Frames: 6
Frame Time: 0.008333
-2.389197 15.829778 1.687815 -128.920451 -85.192385 151.360047 -10.353489 -0.487737 -3.677897 -13.501770 7.230567 -44.692392 -1.367831 3.731274 61.386110 2.951728 11.191440 -29.115173 -4.597500 -0.000000 -30.818400 10.454516 0.787425 -4.387547 13.299341 -7.419829 -52.676297 -1.649501 -6.399360 81.733215 -1.424280 -5.908388 -13.200372 0.501101 0.000000 -24.698900 0.113287 -1.188227 9.978986 -0.554401 -0.937539 -0.867144 -5.253445 -0.864162 -0.031251 7.945522 -8.847295 -7.609298 -2.482724 -0.158312 -0.359564 0.000000 0.000000 0.000000 7.080027 9.301720 0.529777 -71.480617 -6.919672 2.907039 0.074644 -88.257585 0.012024 -1.674327 3.767693 -0.049995 0.015754 0.330580 0.000000 0.000000 0.000000 0.000000 0.000000 0.000000 0.000000 7.910508 -4.385403 1.968228 73.614705 -0.730879 4.496351 1.703279 50.492662 0.004843 -1.823549 8.776187 -0.148257 0.069164 -0.228395 0.000000 0.000000 0.000000 0.000000 0.000000 0.000000 0.000000 
-2.543866 15.860587 1.682902 -126.592649 -85.377777 149.141702 -10.419264 -0.482529 -3.788508 -13.308740 7.549459 -43.895540 -1.408624 3.687592 60.913439 2.855722 10.822351 -28.758339 -4.402000 0.000000 -32.325900 10.275975 0.885406 -4.261228 13.588887 -6.942599 -54.049714 -1.481244 -6.403304 80.693953 -1.448791 -5.848056 -13.686427 0.547500 -0.000000 -24.975000 0.513837 -1.356604 10.019289 -0.467188 -1.117620 -0.839279 -5.239973 -1.042212 0.023955 7.992430 -9.224894 -7.647260 -2.496574 -0.159094 -0.369200 0.000000 0.000000 0.000000 7.614353 9.095936 0.421516 -70.744219 -7.657450 2.567824 0.150707 -89.728667 0.013991 -1.872213 3.766374 -0.055927 0.022724 0.342152 0.000000 0.000000 0.000000 0.000000 0.000000 0.000000 0.000000 8.001724 -4.897478 2.020756 73.385819 -1.712744 4.472867 1.712897 50.700437 0.005528 -1.696604 8.849385 -0.139251 0.068767 -0.223385 0.000000 0.000000 0.000000 0.000000 0.000000 0.000000 0.000000 
-2.700033 15.890992 1.676975 -124.373275 -85.552193 147.059555 -10.485052 -0.473599 -3.890239 -13.122306 7.864607 -43.128187 -1.451343 3.643270 60.415180 2.760220 10.447395 -28.389904 -4.205600 -0.000001 -33.915500 10.087586 0.975002 -4.118814 13.871687 -6.456697 -55.407290 -1.304556 -6.395663 79.521570 -1.492593 -5.887157 -14.090783 0.591900 0.000000 -25.404600 0.902702 -1.519698 10.031833 -0.382216 -1.293599 -0.816444 -5.224210 -1.216734 0.084850 8.039507 -9.637134 -7.709247 -2.506430 -0.159321 -0.385158 0.000000 0.000000 0.000000 8.128652 8.936823 0.319752 -69.967355 -8.354224 2.153831 -179.774929 -88.813242 -179.984257 -2.037616 3.780055 -0.061160 0.029273 0.353325 0.000000 0.000000 0.000000 0.000000 0.000000 0.000000 0.000000 8.083750 -5.433456 2.064106 73.136314 -2.706531 4.473753 1.714450 51.096852 0.006176 -1.547654 8.893448 -0.127945 0.068072 -0.219006 0.000000 0.000000 0.000000 0.000000 0.000000 0.000000 0.000000 
-2.858104 15.920643 1.669793 -122.324568 -85.721023 145.177989 -10.548471 -0.457635 -3.980522 -12.951206 8.167544 -42.390932 -1.496049 3.597972 59.889929 2.665764 10.068950 -28.009076 -4.009599 -0.000000 -35.521800 9.892873 1.056283 -3.960128 14.145538 -5.970610 -56.749153 -1.120098 -6.376766 78.216011 -1.549375 -5.989671 -14.399053 0.630100 0.000000 -25.903000 1.274154 -1.678478 10.012824 -0.300337 -1.466533 -0.797297 -5.206042 -1.388565 0.159869 8.089218 -10.112158 -7.803568 -2.509859 -0.158693 -0.409659 0.000000 0.000000 0.000000 8.611299 8.841450 0.222527 -69.141725 -9.024966 1.681528 -179.702739 -87.372135 -179.982703 -2.169322 3.812458 -0.065794 0.035218 0.363918 0.000000 0.000000 0.000000 0.000000 0.000000 0.000000 0.000000 8.156310 -6.025673 2.096526 72.862337 -3.670006 4.542349 1.709647 51.642816 0.006767 -1.403205 8.921028 -0.116737 0.067471 -0.215212 0.000000 0.000000 0.000000 0.000000 0.000000 0.000000 0.000000 
-3.018069 15.949217 1.661370 -120.399010 -85.884628 143.449525 -10.609519 -0.435028 -4.059000 -12.791340 8.457867 -41.684070 -1.541305 3.551548 59.341380 2.571276 9.686859 -27.602843 -3.811300 0.000000 -37.191101 9.693935 1.125965 -3.784752 14.416618 -5.483190 -58.068905 -0.928242 -6.346865 76.776014 -1.613006 -6.123604 -14.594900 0.656500 0.000000 -26.451100 1.631946 -1.831302 9.961369 -0.220838 -1.635094 -0.786169 -5.185190 -1.556921 0.233635 8.137233 -10.594274 -7.911420 -2.509890 -0.157704 -0.437382 0.000000 0.000000 0.000000 9.081203 8.767215 0.133451 -68.290440 -9.622884 1.129965 -179.633095 -85.947964 -179.981245 -2.281730 3.844623 -0.069829 0.040959 0.374274 0.000000 0.000000 0.000000 0.000000 0.000000 0.000000 0.000000 8.215826 -6.612270 2.121218 72.588782 -4.672221 4.574582 1.696443 52.364007 0.007354 -1.218191 8.917489 -0.101730 0.066331 -0.212032 0.000000 0.000000 0.000000 0.000000 0.000000 0.000000 0.000000 
-3.180466 15.976398 1.651280 -118.710692 -86.051920 141.989221 -10.664778 -0.400980 -4.124295 -12.657750 8.726749 -41.003729 -1.587839 3.503902 58.768941 2.477947 9.304659 -27.177636 -3.613700 0.000000 -38.776500 9.496123 1.186229 -3.594014 14.675653 -5.007636 -59.370018 -0.728774 -6.308022 75.214484 -1.675171 -6.242459 -14.692131 0.667700 -0.000000 -26.894900 1.964698 -1.980574 9.876315 -0.145606 -1.801454 -0.779505 -5.161616 -1.723469 0.320702 8.188351 -11.132518 -8.048095 -2.502847 -0.155845 -0.472598 0.000000 0.000000 0.000000 9.518551 8.747298 0.049382 -67.396805 -10.179857 0.526456 -179.566092 -84.542429 -179.979943 -2.371031 3.887315 -0.073363 0.046202 0.384055 -0.000000 0.000000 0.000000 0.000000 0.000000 0.000000 0.000000 8.264355 -7.249684 2.135182 72.300817 -5.639726 4.658525 1.677377 53.201770 0.007890 -1.044509 8.907379 -0.087621 0.065356 -0.209424 0.000000 0.000000 0.000000 0.000000 0.000000 0.000000 0.000000 
